<svg viewBox="0 0 44 44" width="14" height="14" xmlns="http://www.w3.org/2000/svg"><path d="M22 44C9.85 44 0 34.15 0 22S9.85 0 22 0s22 9.85 22 22-9.85 22-22 22zm-5-25.583c0 .325.141.626.423.904.283.278.63.417 1.04.417.697 0 1.17-.398 1.419-1.194.264-.76.587-1.337.968-1.728.381-.39.975-.586 1.782-.586.69 0 1.252.194 1.689.581.436.388.654.863.654 1.427 0 .289-.071.556-.215.803-.143.247-.318.47-.528.671-.209.2-.548.498-1.017.893-.535.45-.96.84-1.276 1.168a3.888 3.888 0 0 0-.759 1.141c-.19.433-.286.946-.286 1.538 0 .472.13.828.39 1.067.26.24.582.36.963.36.733 0 1.17-.367 1.309-1.1.08-.345.141-.586.181-.724a2.18 2.18 0 0 1 .171-.412 2.3 2.3 0 0 1 .336-.454c.15-.166.35-.358.599-.576a64.912 64.912 0 0 0 1.875-1.654c.349-.328.65-.717.902-1.168.254-.45.38-.975.38-1.574 0-.761-.222-1.466-.665-2.114-.444-.648-1.073-1.16-1.887-1.538-.814-.377-1.753-.565-2.816-.565-1.144 0-2.145.225-3.003.676-.858.451-1.51 1.02-1.958 1.707-.447.687-.671 1.365-.671 2.034zM22.368 30c.433 0 .814-.14 1.144-.423.33-.282.495-.669.495-1.162 0-.444-.158-.817-.473-1.12a1.618 1.618 0 0 0-1.166-.455c-.47 0-.865.152-1.188.455a1.476 1.476 0 0 0-.484 1.12c0 .5.167.89.5 1.168.334.278.725.417 1.172.417z" fill-rule="evenodd"></path></svg>