<svg xmlns="http://www.w3.org/2000/svg" width="60px" height="60px" viewBox="-10 0 600 450" fill="none" stroke="currentColor" stroke-width="24" stroke-linecap="round" stroke-linejoin="round">
  <path d="M504.3 195.6c-10.6-6.4-29.7-43.5-34-47.8-4.3-4.3-28.7-13.8-28.7-13.8l-13.8-43.5c-26.5 3.2-42.4 45.6-43.5 48.8 0 0-2.7 73.8-120.5 45.1-84.4-20.5-135.2-40.4-177.9-0.4-2.7-4.6-4.5-9.2-5.8-14.3-2.4-9.1-2.9-19.5-2.9-31.3 0-5.8 0.1-11.9 0.1-18.3 0-13.4-0.5-28.2-4-44-3.6-15.6-10.3-32.3-22.1-48.9-5.1-7.2-15-8.9-22.2-3.8-7.2 5.1-8.9 15-3.8 22.2 9.3 13.1 14.2 25.4 16.9 37.6 2.7 12.2 3.3 24.4 3.3 37 0 6-0.1 12.1-0.1 18.3 0 12.6 0.4 25.8 3.9 39.3 2.7 10.7 7.7 21.6 15.5 31.7-23.1 42.9-5 98.1-5 98.1l-34.1 54.2c-0.6 1-1 2.1-1.2 3.2L0.1 454.1c-0.6 3.5 0.9 7.1 3.8 9.1l41 27.8c0.9 0.6 2 0.8 3 0.5 1-0.3 1.9-1 2.3-2l8.3-17.8c0.6-1.3 0.4-2.9-0.6-4L46.9 456c-2.2-2.3-3-5.6-2.1-8.7l17.8-61c0.6-1.9 1.8-3.6 3.4-4.8l24-17.1c3.3-2.3 7.7-2.2 10.8 0.3 3.1 2.5 4.3 6.7 2.8 10.4L93.4 401.9c-1.2 3.1-0.7 6.5 1.4 9.1l60.3 73.4h45.2c2 0 3.6-1.6 3.6-3.6v-22.5c0-2-1.6-3.6-3.6-3.6h-14.3c-3.3 0-6.4-1.9-8-4.8l-24.5-41c-1.6-3.1-1.3-6.9 0.8-9.7l21.9-29c1.7-2.2 4.4-3.6 7.2-3.6h61.2c2.9 0 5.6 1.4 7.3 3.7 1.7 2.3 2.2 5.3 1.3 8.1l-19.7 62.2c-0.6 2-0.6 4.1 0.2 6l12.7 32.6h39.3v-8.5l-6.5-20.4c-0.6-1.9-0.6-4 0.1-5.9l26.5-71.8c1.3-3.6 4.7-5.9 8.5-5.9h27c2.4 0 4.8 1 6.5 2.8l74.8 103.4h51c12.7 0 7.8-25.4-4.2-26.5-22.8-2.1-52-65.8-64.7-88.1s24.7-91.3 53.1-94.5c28.7-3.2 43.5-14.9 47.8-30.8 4.3-15.9 5.3-37.1-5.3-43.5zM93.4 401.9c-1.2 3.1-0.7 6.5 1.4 9.1l40 48.7" />
</svg>
