<!-- License: CC Attribution. Made by Openmoji.org: https://github.com/hfg-gmuend/openmoji/blob/master/LICENSE.txt -->
<svg width="72px" height="72px" viewBox="5 6 60 60" id="emoji" xmlns="http://www.w3.org/2000/svg">
  <g id="hair"/>
  <g id="skin"/>
  <g id="skin-shadow"/>
  <g id="line">
    <polyline fill="none" stroke="#000000" stroke-linecap="round" stroke-linejoin="round" stroke-miterlimit="10" stroke-width="2.5" points="8,36 14,40 11,34"/>
    <polyline fill="none" stroke="#000000" stroke-linecap="round" stroke-linejoin="round" stroke-miterlimit="10" stroke-width="2.5" points="27.1439,51.2523 24,59 21,59"/>
    <polyline fill="none" stroke="#000000" stroke-linecap="round" stroke-linejoin="round" stroke-miterlimit="10" stroke-width="2.5" points="32.8504,54.1235 31,59 35,59"/>
    <path fill="none" stroke="#000000" stroke-linecap="round" stroke-linejoin="round" stroke-miterlimit="10" stroke-width="2.5" d="M58,46h3c0,0-5,10-23,9c0,0-7,0-15-8c0,0,1,7-4,5s-6-5-4-12l25,4"/>
    <polyline fill="none" stroke="#000000" stroke-linecap="round" stroke-linejoin="round" stroke-miterlimit="10" stroke-width="2.5" points="56,59 52,59 57,34 39,49"/>
    <polyline fill="none" stroke="#000000" stroke-linecap="round" stroke-linejoin="round" stroke-miterlimit="10" stroke-width="2.5" points="56,59 52,59 57,34 40,50 "/>
  </g>
</svg>
